<?xml version="1.0" encoding="UTF-8"?>
<svg width="20px" height="20px" viewBox="0 0 20 20" version="1.1" xmlns="http://www.w3.org/2000/svg" xmlns:xlink="http://www.w3.org/1999/xlink">
    <title>Group 5</title>
    <g id="Typography" stroke="none" stroke-width="1" fill="none" fill-rule="evenodd" stroke-linecap="round" stroke-linejoin="round">
        <g id="Building-blocks" transform="translate(-90.000000, -2105.000000)" stroke="#8E8E93" stroke-width="1.5">
            <g id="Info-block" transform="translate(88.000000, 2103.000000)">
                <g id="Group-5" transform="translate(3.000000, 3.000000)">
                    <path d="M7,7 C7,5.8954305 7.8954305,5 9,5 C10.1045695,5 11,5.8954305 11,7 C11,8.1045695 10.1045695,9 9,9" id="Path"></path>
                    <line x1="9" y1="10.5" x2="9" y2="9" id="Path"></line>
                    <path d="M0,13 L0,5 C0,2.23857625 2.23857625,0 5,0 L13,0 C15.7614237,0 18,2.23857625 18,5 L18,13 C18,15.7614237 15.7614237,18 13,18 L5,18 C2.23857625,18 0,15.7614237 0,13 Z" id="Path"></path>
                    <path d="M9,12.95 C8.97238576,12.95 8.95,12.9723858 8.95,13 C8.95,13.0276142 8.97238576,13.05 9,13.05 C9.02761424,13.05 9.05,13.0276142 9.05,13 C9.05,12.9723858 9.02761424,12.95 9,12.95" id="Path"></path>
                </g>
            </g>
        </g>
    </g>
</svg>