<?xml version="1.0" encoding="UTF-8"?>
<svg width="20px" height="20px" viewBox="0 0 20 20" version="1.1" xmlns="http://www.w3.org/2000/svg" xmlns:xlink="http://www.w3.org/1999/xlink">
    <title>Group 4</title>
    <g id="Typography" stroke="none" stroke-width="1" fill="none" fill-rule="evenodd" stroke-linecap="round" stroke-linejoin="round">
        <g id="Building-blocks" transform="translate(-352.000000, -1417.000000)" stroke="#D1D1D6" stroke-width="1.5">
            <g id="Icons/Dot-Menu" transform="translate(350.000000, 1415.000000)">
                <g id="menu-dots-circle" transform="translate(12.000000, 12.000000) rotate(90.000000) translate(-12.000000, -12.000000) ">
                    <g id="Group-4" transform="translate(3.000000, 3.000000)">
                        <path d="M18,9 C18,13.9705627 13.9705627,18 9,18 C4.02943725,18 0,13.9705627 0,9 C0,4.02943725 4.02943725,0 9,0 C13.9705627,0 18,4.02943725 18,9 L18,9 Z" id="Path"></path>
                        <path d="M8.625,9.001 C8.62610318,9.20784284 8.79448175,9.37473211 9.00132623,9.37399764 C9.20817071,9.37326316 9.37535985,9.20518235 9.37499408,8.99833689 C9.37462831,8.79149143 9.20684578,8.62400294 8.99999734,8.624 C8.79257012,8.62510044 8.62499708,8.7935672 8.625,9.001" id="Path"></path>
                        <path d="M8.625,5.001 C8.62610318,5.20784284 8.79448175,5.37473211 9.00132623,5.37399764 C9.20817071,5.37326316 9.37535985,5.20518235 9.37499408,4.99833689 C9.37462831,4.79149143 9.20684578,4.62400294 8.99999734,4.624 C8.79257012,4.62510044 8.62499708,4.7935672 8.625,5.001" id="Path"></path>
                        <path d="M8.625,13.001 C8.62610318,13.2078428 8.79448175,13.3747321 9.00132623,13.3739976 C9.20817071,13.3732632 9.37535985,13.2051823 9.37499408,12.9983369 C9.37462831,12.7914914 9.20684578,12.6240029 8.99999734,12.624 C8.79257012,12.6251004 8.62499708,12.7935672 8.625,13.001" id="Path"></path>
                    </g>
                </g>
            </g>
        </g>
    </g>
</svg>