<?xml version="1.0" encoding="UTF-8"?>
<svg width="26px" height="26px" viewBox="0 0 26 26" version="1.1" xmlns="http://www.w3.org/2000/svg" xmlns:xlink="http://www.w3.org/1999/xlink">
    <title>Group 2</title>
    <g id="[Symbols]" stroke="none" stroke-width="1" fill="none" fill-rule="evenodd" stroke-linecap="round" stroke-linejoin="round">
        <g id="Components/Toolbar-Crash-reports" transform="translate(-19.000000, -207.000000)" stroke="#D1D1D6" stroke-width="2">
            <g id="Tab" transform="translate(0.000000, 192.000000)">
                <g id="suitcase-portfolio-1" transform="translate(16.000000, 12.000000)">
                    <g id="Group-2" transform="translate(4.000000, 4.000000)">
                        <path d="M18.6666667,24 L5.33333333,24 C2.38781467,24 0,21.6121853 0,18.6666667 L0,8 C0,6.52724067 1.19390733,5.33333333 2.66666667,5.33333333 L21.3333333,5.33333333 C22.8060927,5.33333333 24,6.52724067 24,8 L24,18.6666667 C24,21.6121853 21.6121853,24 18.6666667,24 Z" id="Path"></path>
                        <path d="M6.66666667,5.33333333 L6.66666667,2.66666667 C6.66666667,1.19390733 7.860574,-8.8817842e-15 9.33333333,-8.8817842e-15 L14.6666667,-8.8817842e-15 C16.139426,-8.8817842e-15 17.3333333,1.19390733 17.3333333,2.66666667 L17.3333333,5.33333333" id="Path"></path>
                        <rect id="Rectangle" x="9.33333333" y="10.6666667" width="5.33333333" height="4" rx="0.5"></rect>
                        <path d="M14.6666667,12.6666667 L19.3333333,12.6666667 C21.9106622,12.6666667 24,10.5773288 24,8" id="Path"></path>
                        <path d="M9.33333333,12.6666667 L4.66666667,12.6666667 C2.08933783,12.6666667 -1.50990331e-13,10.5773288 -1.50990331e-13,8" id="Path"></path>
                    </g>
                </g>
            </g>
        </g>
    </g>
</svg>