<?xml version="1.0" encoding="UTF-8"?>
<svg width="26px" height="28px" viewBox="0 0 26 28" version="1.1" xmlns="http://www.w3.org/2000/svg" xmlns:xlink="http://www.w3.org/1999/xlink">
    <title>Group 2</title>
    <g id="[Symbols]" stroke="none" stroke-width="1" fill="none" fill-rule="evenodd" stroke-linecap="round" stroke-linejoin="round">
        <g id="Components/Toolbar-Charts" transform="translate(-19.000000, -317.000000)" stroke="#D1D1D6" stroke-width="2">
            <g id="Tab" transform="translate(0.000000, 304.000000)">
                <g id="business-chart-search" transform="translate(16.000000, 12.000000)">
                    <g id="Group-2" transform="translate(4.000000, 2.666667)">
                        <circle id="Oval" cx="17.3333333" cy="5.33333333" r="5.33333333"></circle>
                        <line x1="24" y1="12" x2="21.104" y2="9.104" id="Path"></line>
                        <path d="M17.3333333,25.3333333 L20,25.3333333 C22.209139,25.3333333 24,23.5424723 24,21.3333333 L24,17.3333333" id="Path"></path>
                        <path d="M1.5187851e-13,12 L1.5187851e-13,6.66666667 C1.5187851e-13,4.45752767 1.790861,2.66666667 4,2.66666667 L6.66666667,2.66666667" id="Path"></path>
                        <polygon id="Path" points="0 20.3333333 4 20.3333333 4 25.3333333 0 25.3333333"></polygon>
                        <polygon id="Path" points="4 14.6666667 8 14.6666667 8 25.3333333 4 25.3333333"></polygon>
                        <polygon id="Path" points="8 17.6666667 12 17.6666667 12 25.3333333 8 25.3333333"></polygon>
                    </g>
                </g>
            </g>
        </g>
    </g>
</svg>