<?xml version="1.0" encoding="UTF-8"?>
<svg width="26px" height="22px" viewBox="0 0 26 22" version="1.1" xmlns="http://www.w3.org/2000/svg" xmlns:xlink="http://www.w3.org/1999/xlink">
    <title>Group</title>
    <g id="[Symbols]" stroke="none" stroke-width="1" fill="none" fill-rule="evenodd" stroke-linecap="round" stroke-linejoin="round">
        <g id="Components/Toolbar-Crash-reports" transform="translate(-19.000000, -265.000000)" stroke="#D1D1D6" stroke-width="2">
            <g id="Tab" transform="translate(0.000000, 248.000000)">
                <g id="icons8-staff" transform="translate(16.000000, 12.000000)">
                    <g id="Path" transform="translate(4.000000, 6.666670)">
                        <path d="M0,18.6666634 L0,18.6666634 C0,15.7213301 2.38800001,13.3333301 5.33333336,13.3333301 L10.6666667,13.3333301 C13.6120001,13.3333301 16,15.7213301 16,18.6666634 L16,18.6666634"></path>
                        <path d="M17.3333334,0.86799667 C19.1746667,0.86799667 20.6666668,2.35999668 20.6666668,4.20133002 C20.6666668,6.04266336 19.1746667,7.53466336 17.3333334,7.53466336"></path>
                        <path d="M11.2065334,1.32817001 C12.9774267,3.09906335 12.9774267,5.97026336 11.2065334,7.7411567 C9.43564004,9.51205004 6.56444003,9.51205004 4.79354669,7.7411567 C3.02265335,5.97026336 3.02265335,3.09906335 4.79354669,1.32817001 C6.56444003,-0.442723335 9.43564004,-0.442723335 11.2065334,1.32817001"></path>
                        <path d="M18.6666667,11.9999967 C21.6120001,11.9999967 24.0000001,14.3879967 24.0000001,17.3333301"></path>
                    </g>
                </g>
            </g>
        </g>
    </g>
</svg>